<svg id="Layer_1" data-name="Layer 1" xmlns="http://www.w3.org/2000/svg" viewBox="0 0 27.39 36.29"><defs><style>.cls-1,.cls-4{fill:#011f3d;}.cls-2{fill:#9e50fc;}.cls-3,.cls-4{isolation:isolate;}.cls-4{font-size:9px;font-family:Roboto-Bold, Roboto;font-weight:700;}</style></defs><g id="Group_4964" data-name="Group 4964"><g id="Group_4952" data-name="Group 4952"><g id="Group_4655-3" data-name="Group 4655-3"><path id="Path_10275-3" data-name="Path 10275-3" class="cls-1" d="M631.12,530H609.44a2.88,2.88,0,0,1-2.87-2.87V496.54a2.83,2.83,0,0,1,2.82-2.83h16.19l8.37,8.38v25.08A2.83,2.83,0,0,1,631.12,530Zm-21.73-34.4a.94.94,0,0,0-.93.94v30.59a1,1,0,0,0,1,1h21.68a1,1,0,0,0,1-.94v-24.3l-7.28-7.27Z" transform="translate(-606.57 -493.71)"/><path id="Path_10276-3" data-name="Path 10276-3" class="cls-2" d="M630.18,506.39h-6.95a1,1,0,0,1-1-1v-7.76h2v6.75h5.94Z" transform="translate(-606.57 -493.71)"/></g><g id="XLS" class="cls-3"><text class="cls-4" transform="translate(5.88 29)">XLS</text></g></g></g></svg>