<svg id="Layer_1" data-name="Layer 1" xmlns="http://www.w3.org/2000/svg" viewBox="0 0 27.39 36.29"><defs><style>.cls-1,.cls-3{fill:#011f3d;}.cls-2,.cls-3{isolation:isolate;}.cls-3{font-size:9px;font-family:Roboto-Bold, Roboto;font-weight:700;}.cls-4{fill:#9e50fc;}</style></defs><g id="Group_4961" data-name="Group 4961"><path id="Path_10275-6" data-name="Path 10275-6" class="cls-1" d="M751.12,530H729.44a2.88,2.88,0,0,1-2.87-2.87V496.54a2.83,2.83,0,0,1,2.82-2.83h16.19l8.37,8.38v25.08A2.83,2.83,0,0,1,751.12,530Zm-21.73-34.4a.94.94,0,0,0-.93.94v30.59a1,1,0,0,0,1,1h21.68a1,1,0,0,0,1-.94v-24.3l-7.28-7.27Z" transform="translate(-726.57 -493.71)"/><g id="ICS" class="cls-2"><text class="cls-3" transform="translate(6.87 29.32)">ICS</text></g><rect id="Rectangle_2127" data-name="Rectangle 2127" class="cls-1" x="15.88" y="12" width="3" height="3"/><rect id="Rectangle_2128" data-name="Rectangle 2128" class="cls-1" x="11.88" y="12" width="3" height="3"/><rect id="Rectangle_2129" data-name="Rectangle 2129" class="cls-1" x="7.88" y="12" width="3" height="3"/><rect id="Rectangle_2130" data-name="Rectangle 2130" class="cls-1" x="15.88" y="16" width="3" height="3"/><rect id="Rectangle_2131" data-name="Rectangle 2131" class="cls-1" x="11.88" y="16" width="3" height="3"/><rect id="Rectangle_2132" data-name="Rectangle 2132" class="cls-1" x="7.88" y="16" width="3" height="3"/><rect id="Rectangle_2135" data-name="Rectangle 2135" class="cls-4" x="7.88" y="8" width="11" height="3"/></g></svg>